<?xml version="1.0" encoding="utf-8"?>
<!-- Generator: Adobe Illustrator 24.1.1, SVG Export Plug-In . SVG Version: 6.00 Build 0)  -->
<svg version="1.1" id="Layer_1" xmlns="http://www.w3.org/2000/svg" xmlns:xlink="http://www.w3.org/1999/xlink" x="0px" y="0px"
	 viewBox="0 0 333 45.6" xml:space="preserve" fill="currentColor" style="color: white">
<g>
	<path d="M34.7,32.4l-14.2-30l-14.2,30C16.4,28.3,24.7,36.5,34.7,32.4z M20.6,11.3l8.7,18.5c-0.2,0-0.5,0-0.7,0
		c-2.3,0-4.7-0.5-7.2-1.1c-2.7-0.6-5.4-1.2-8.4-1.3L20.6,11.3z"/>
	<path d="M5.1,35.7l-2,4.3c12.3-5.1,22.5,5.1,34.9,0l-2-4.3C25.1,40.2,16,31.2,5.1,35.7z"/>
	<path d="M71.7,4.3l-4.3,9.5c-1,2.5-2.2,4.8-3.4,7.3h-0.2c-1.2-2.5-2.2-4.9-3.3-7.3l-4.3-9.5h-4.6l10.1,20.6v13h4.3v-13
		L76.2,4.3H71.7z"/>
	<path d="M84.4,4.3L73,37.9h4.4l3.2-10.2h12.3L96,37.9h4.5L89.2,4.3H84.4z M91.8,24.2H81.6l1.6-5.1
		c1.2-3.8,2.3-7.4,3.3-11.3h0.2c1.1,3.9,2.2,7.6,3.4,11.3L91.8,24.2z"/>
	<path d="M116.5,34.7c-6.4,0-10.4-5.3-10.4-13.7c0-8.4,4.2-13.6,10.6-13.6c2.8,0,5.1,1.3,6.8,3.2l2.3-2.8
		c-2-2.2-5.2-4.1-9.2-4.1c-8.5,0-14.9,6.6-14.9,17.5c0,10.9,6.3,17.4,14.6,17.4c4.4,0,7.7-1.8,10.3-4.9l-2.3-2.7
		C122.2,33.3,119.7,34.7,116.5,34.7z"/>
	<polygon points="151.3,18.3 135.7,18.3 135.7,4.3 131.4,4.3 131.4,37.9 135.7,37.9 135.7,22.1 151.3,22.1 151.3,37.9 
		155.6,37.9 155.6,4.3 151.3,4.3 	"/>
	<polygon points="160.4,7.9 170.6,7.9 170.6,37.9 174.9,37.9 174.9,7.9 185,7.9 185,4.3 160.4,4.3 	"/>
	<path d="M203.1,20l-4.8-2.1c-2.6-1.1-5.6-2.3-5.6-5.6c0-3,2.5-4.9,6.3-4.9c3.1,0,5.6,1.2,7.6,3.2l2.3-2.7
		c-2.4-2.4-5.9-4.2-9.9-4.2c-6.1,0-10.6,3.8-10.6,8.9c0,4.9,3.7,7.3,6.8,8.7l4.8,2.1c3.2,1.4,5.6,2.5,5.6,5.9c0,3.3-2.6,5.5-7,5.5
		c-3.5,0-6.9-1.7-9.3-4.2l-2.6,2.9c2.9,3.1,7,5,11.8,5c7.1,0,11.5-4.2,11.5-9.6C210,23.9,206.9,21.6,203.1,20z"/>
	<path d="M231.5,22.2c-0.8,2.3-1.5,4.7-2.3,7H229c-0.8-2.3-1.6-4.7-2.4-7l-6.4-18H215v33.6h3.9V19.4
		c0-2.9-0.3-7-0.5-9.9h0.2l2.7,7.7l6.4,17.4h2.8l6.3-17.4l2.7-7.7h0.2c-0.2,3-0.5,7-0.5,9.9v18.5h4V4.3h-5.2L231.5,22.2z"/>
	<path d="M258.5,4.3l-11.4,33.6h4.4l3.2-10.2H267l3.2,10.2h4.5L263.4,4.3H258.5z M265.9,24.2h-10.1l1.6-5.1
		c1.2-3.8,2.3-7.4,3.3-11.3h0.2c1.1,3.9,2.2,7.6,3.4,11.3L265.9,24.2z"/>
	<path d="M301.1,13.7c0-7-4.9-9.5-11.8-9.5h-10.5v33.6h4.3V23.7h6.1l8.1,14.2h4.8l-8.6-14.7
		C298.1,22.1,301.1,19,301.1,13.7z M283.1,7.7h5.6c5.2,0,8.1,1.6,8.1,6c0,4.4-2.9,6.5-8.1,6.5h-5.6V7.7z"/>
	<polygon points="303.9,4.3 303.9,7.9 314.1,7.9 314.1,37.9 318.4,37.9 318.4,7.9 328.5,7.9 328.5,4.3 	"/>
</g>
</svg>
